<svg width="204" height="252" viewBox="0 0 204 252" fill="none" xmlns="http://www.w3.org/2000/svg">
<path fill-rule="evenodd" clip-rule="evenodd" d="M205.554 99.3043C204.644 92.9986 201.477 87.4452 196.482 83.54C191.438 79.6035 186.456 75.5174 181.523 71.2911L162.447 91.2139C162.673 83.4509 163.078 75.7279 163.631 68.0366C164.175 60.4306 161.462 53.1941 156.039 47.8738C152.755 44.655 149.494 41.3835 146.244 38.0629L141.84 33.5142C131.739 22.9889 121.797 11.9844 111.958 0.642533L103.819 7.12563C113.743 18.5563 123.789 29.6796 134.018 40.3465L113.542 58.2209C108.317 52.7681 103.151 47.2233 98.0434 41.5982C93.3235 36.4097 86.8392 32.9534 79.7486 31.9058C68.0442 30.1648 56.2969 28.2046 44.5378 26.1164L19.5592 0L11.7823 6.77528L38.6391 34.8584C38.3503 44.9735 38.1114 55.1076 38.0925 65.3171C38.0797 72.3579 40.8522 79.3752 45.8891 84.9129C51.335 90.9094 56.8832 96.8676 62.5345 102.76L42.0604 120.641C30.2713 108.356 19.0201 95.8784 8.14008 83.3406L0 89.8233C10.9631 102.455 22.3133 115.041 34.24 127.47L39.462 132.861C43.3314 136.82 47.2602 140.763 51.2574 144.674C57.8606 151.155 66.8719 154.883 75.684 154.798C84.583 154.717 93.4456 154.48 102.254 154.073L83.1833 173.999C89.5377 179.44 96.0599 184.791 102.758 190.023C110.381 195.982 120.125 198.871 129.064 197.882C138.089 196.897 147.038 195.681 155.871 194.255L139.575 216.25C146.87 220.97 154.343 225.513 161.945 229.868C170.61 234.832 180.883 236.384 189.681 234.199C195.026 232.885 200.319 231.484 205.554 230.002V215.712C198.308 217.749 190.95 219.631 183.487 221.351C178.867 222.412 173.592 221.571 169.139 219.021L165.006 216.634C162.69 215.285 161.849 212.707 163.094 210.912L177.354 190.304C186.92 188.315 196.329 186.04 205.554 183.493V99.3043ZM205.554 246.262L203.102 250.834C203.918 251.203 204.735 251.569 205.554 251.933V246.262ZM78.1122 44.8955C81.8769 45.4377 85.3409 47.2743 87.8668 50.0529C93.6771 56.4497 99.5663 62.7592 105.551 68.9482C104.851 76.3345 104.26 83.754 103.796 91.2147C103.616 94.0177 101.278 96.1793 98.3079 96.2222C90.4268 96.333 82.5001 96.327 74.5467 96.2048C68.2562 89.6995 62.107 83.1151 56.0614 76.4591C53.438 73.5662 51.9731 69.9 51.9633 66.1987C51.9377 59.2177 51.9926 52.263 52.113 45.3266C52.1298 44.1778 52.653 43.1284 53.5448 42.4198C54.4399 41.7099 55.6167 41.4198 56.7906 41.6125C63.9087 42.776 71.0131 43.8694 78.1122 44.8955ZM143.626 54.1436L146.346 56.8289C149.265 59.6854 150.74 63.6202 150.428 67.6721C149.171 83.5179 148.523 99.5121 148.72 115.73C148.745 117.895 147.441 119.846 145.353 120.72C143.269 121.579 140.781 121.197 139.031 119.708C132.249 113.962 125.626 108.047 119.134 101.981C117.901 100.834 117.241 99.2463 117.323 97.6473C117.77 88.6906 118.423 79.7944 119.244 70.9475L137.9 54.0904C139.545 52.6058 142.102 52.6445 143.626 54.1436ZM184.914 91.1097L187.811 93.3917C190.933 95.8291 192.756 99.4531 192.85 103.446C193.229 119.022 194.515 134.786 196.932 150.687C197.248 152.805 196.222 154.904 194.268 156.025C192.319 157.144 189.788 157.082 187.84 155.834C182.973 152.744 178.188 149.546 173.475 146.264C170.861 144.453 168.281 142.602 165.71 140.735C164.357 139.735 163.501 138.267 163.395 136.683C162.749 127.863 162.394 119.104 162.295 110.393L179.296 91.7016C180.781 90.0743 183.288 89.815 184.914 91.1097ZM107.787 177.3C105.744 175.676 105.314 173.036 106.803 171.401L123.799 152.71C133.469 151.917 143.058 150.882 152.515 149.585C154.203 149.36 155.967 149.797 157.362 150.825C160.006 152.747 162.656 154.652 165.345 156.512C170.196 159.894 175.127 163.188 180.137 166.369C182.14 167.654 183.234 169.818 182.919 171.962C182.603 174.107 180.937 175.803 178.616 176.283C161.223 179.88 143.302 182.523 125.034 184.297C120.371 184.758 115.368 183.25 111.433 180.171L107.787 177.3ZM60.951 135.72L57.7643 132.578C55.9837 130.816 55.8943 128.179 57.5357 126.696L76.1974 109.837C85.8426 109.859 95.4433 109.72 104.99 109.38C106.698 109.324 108.388 109.96 109.646 111.136C116.27 117.323 123.037 123.373 129.981 129.248C131.772 130.779 132.543 133.073 131.925 135.168C131.315 137.253 129.424 138.743 127.085 138.926C109.515 140.35 91.6379 140.998 73.6401 141.018C69.0329 141.027 64.3871 139.084 60.951 135.72Z" fill="white" fill-opacity="0.19"/>
</svg>
