<svg width="76" height="76" viewBox="0 0 76 76" fill="none" xmlns="http://www.w3.org/2000/svg">
<path d="M18.8955 54.9393C17.6257 62.3046 17.0331 66.0245 19.1495 68.146C23.2826 72.2942 33.7252 67.6269 35.4039 66.8762C45.7153 62.2648 59.662 49.803 55.9759 38.4309C53.9001 32.0214 46.4095 26.5312 38.9689 26.9664C33.1274 27.305 29.2077 31.1849 27.2741 33.0965C21.7112 38.5977 20.5929 45.0892 18.8955 54.9393V54.9393Z" fill="#EF863F"/>
<path d="M19.4034 68.9096C19.6083 69.6494 23.1613 69.2592 24.422 69.1204C39.7528 67.4374 50.4672 56.8559 53.6293 51.1296C53.6961 51.0085 53.7986 50.8256 53.9205 50.5869C54.8162 48.8607 57.2687 43.9674 55.9828 38.4291C55.419 36.001 55.0863 34.5669 54.205 34.3655C51.148 33.6662 49.5285 49.6345 37.6119 59.416C29.3686 66.1853 19.0573 67.644 19.4035 68.9096L19.4034 68.9096Z" fill="#CF7436"/>
<path d="M23.5043 71.3976C21.2626 71.3976 19.1308 70.8651 17.3505 69.4852C13.1607 66.2377 13.2022 59.9907 13.7008 54.9113C13.7883 54.0504 14.5094 53.3843 15.3859 53.3843C16.3211 53.3843 17.0793 54.1424 17.0793 55.0777C17.0793 55.1362 17.0762 55.1941 17.0705 55.2512C16.6546 59.4609 16.5461 64.5785 19.4245 66.8093C20.5411 67.6745 21.9592 68.0207 23.5161 68.0207C28.4907 68.0207 34.8807 64.4904 37.3806 63.1106C39.6367 61.8644 44.011 59.2162 47.9562 55.4982C53.5826 50.1935 55.9776 44.9803 55.0751 40.0057C54.3275 35.8836 51.2756 32.0545 46.4822 29.2235C40.8152 25.877 33.6801 25.4986 28.3044 28.2559C21.5452 31.7269 19.472 39.1354 18.3357 45.9275C18.1961 46.7346 17.5011 47.3408 16.6646 47.3408C15.7287 47.3408 14.9698 46.5821 14.9698 45.6461C14.9698 45.5466 14.9784 45.4493 14.9949 45.3545C15.7977 40.5755 16.8119 37.1061 18.2866 34.1143C20.2964 30.0362 23.0681 27.1334 26.761 25.2396C30.0084 23.5726 33.7876 22.8259 37.6989 23.0782C41.9575 23.3615 45.8474 24.7243 49.1627 26.8929C53.8585 29.6427 57.4819 34.293 58.4073 39.397C59.0287 42.8223 58.4369 46.3306 56.648 49.8236C55.2478 52.5581 53.1051 55.2959 50.2792 57.9601C46.0631 61.9391 41.4137 64.7488 39.0196 66.0729C36.0049 67.739 29.3787 71.398 23.5043 71.398L23.5043 71.3976Z" fill="black"/>
<path d="M15.9645 52.1192C15.964 52.1192 15.9629 52.1192 15.9622 52.1192C15.0271 52.1192 14.269 51.3612 14.269 50.4261C14.269 50.3445 14.2748 50.2644 14.286 50.186L14.2951 50.1213C14.4122 49.2903 15.1186 48.658 15.9726 48.658C16.9077 48.658 17.6658 49.416 17.6658 50.3512C17.6658 50.4322 17.6601 50.512 17.6491 50.59L17.64 50.6564C17.5228 51.4865 16.8176 52.1183 15.9645 52.1192Z" fill="black"/>
<path d="M43.3542 6.29498C40.2701 6.3433 35.1423 19.5542 40.3557 24.2054C42.2071 25.8579 45.6494 26.685 47.4669 25.2214C51.7134 21.8078 46.7244 6.24258 43.3542 6.29505L43.3542 6.29498Z" fill="#6BE166"/>
<path d="M45.0035 27.6763C42.9335 27.6763 40.7282 26.8034 39.2323 25.4692C37.4764 23.9022 36.5097 21.4767 36.4386 18.4544C36.3818 16.1051 36.8669 13.424 37.8041 10.9054C38.5017 9.0251 40.4421 4.64738 43.3315 4.60166C44.5835 4.58222 45.7867 5.38222 46.8982 6.97978C47.6965 8.12438 48.4627 9.68127 49.1112 11.4819C50.6281 15.681 52.2131 23.5771 48.5313 26.5401C47.5501 27.3309 46.303 27.6754 45.0036 27.6763H45.0035ZM43.3704 8.05662C43.0843 8.27163 42.4959 8.88364 41.8076 10.201C41.0322 11.6851 40.4014 13.5612 40.0772 15.3482C39.449 18.8141 39.963 21.5817 41.4868 22.9413C42.8963 24.1993 45.4268 24.6929 46.4096 23.9013C47.1089 23.3392 47.7388 21.3878 47.2148 17.739C46.6985 14.3113 45.5885 11.229 43.9868 8.46735C44.4549 9.17324 43.709 8.32656 43.3705 8.05655L43.3704 8.05662Z" fill="black"/>
<path d="M48.5066 23.7406C47.9674 25.7801 48.786 28.6771 50.5384 29.3281C54.2338 30.7013 61.9927 22.0635 60.6908 19.8185C59.5242 17.8087 49.8232 18.7577 48.5066 23.7407V23.7406Z" fill="#6BE166"/>
<path d="M51.3968 31.1679C51.3898 31.168 51.3815 31.168 51.3732 31.168C50.8613 31.168 50.3713 31.0748 49.9189 30.9046C48.6395 30.428 47.6125 29.2487 47.0562 27.5928C46.5863 26.1934 46.5178 24.6297 46.8675 23.3064C47.8504 19.5874 52.0215 17.7486 55.5975 17.2685C56.8098 17.106 60.8657 16.747 62.1534 18.9676C62.7061 19.92 62.6461 21.1485 61.9774 22.6172C61.5186 23.6239 60.7727 24.7531 59.8202 25.8825C57.6242 28.4909 54.2937 31.1677 51.3968 31.1677V31.1679ZM57.4771 20.5229C56.0673 20.5335 54.7217 20.7944 53.4781 21.2634C52.5068 21.6158 50.5715 22.5344 50.1422 24.1734C49.7706 25.5813 50.4022 27.4751 51.1269 27.7418C51.4656 27.8688 52.5077 27.7528 54.2347 26.5109C56.7813 24.6258 58.7645 22.1159 59.9748 19.2039C58.6318 21.8877 58.9755 21.1105 59.0932 20.7093C58.7555 20.6026 58.1908 20.523 57.4789 20.523L57.4771 20.5229Z" fill="black"/>
<path d="M50.3599 46.5578C49.9048 46.5573 49.492 46.3768 49.1888 46.0835L43.8623 40.9907C43.5306 40.6808 43.3237 40.2407 43.3237 39.7522C43.3237 38.8172 44.0818 38.0591 45.0169 38.0591C45.479 38.0591 45.8979 38.2443 46.2033 38.5443L51.5298 43.6406C51.8521 43.9494 52.0524 44.3832 52.0524 44.8639C52.0524 45.799 51.2943 46.5571 50.3592 46.5571C50.3592 46.5571 50.3591 46.5571 50.3589 46.5571L50.3599 46.5578Z" fill="black"/>
<path d="M45.5722 52.3078C45.5705 52.3078 45.5683 52.3078 45.5662 52.3078C45.1142 52.3078 44.7037 52.1301 44.4009 51.8407L41.8228 49.3735C41.491 49.0636 41.2842 48.6236 41.2842 48.135C41.2842 47.2 42.0423 46.4419 42.9773 46.4419C43.4394 46.4419 43.8583 46.6271 44.1638 46.9271L46.7405 49.3913C47.0628 49.7002 47.2631 50.134 47.2631 50.6147C47.2631 51.5498 46.505 52.3078 45.5699 52.3078C45.5699 52.3078 45.5698 52.3078 45.5696 52.3078L45.5722 52.3078Z" fill="black"/>
</svg>
